<svg xmlns="http://www.w3.org/2000/svg" viewBox="0 0 496 512">
  <path fill="currentColor" d="M248 8C111 8 0 119 0 256s111 248 248 248 248-111 248-248S385 8 248 8zm121.8 169.9l-111.7 40.4-84.2-30.5c-8.5-3.1-13.1-12.4-10-20.9 3.1-8.5 12.4-13.1 20.9-10l87.5 31.7 115-41.6c8.4-3 17.5 1 20.5 9.4 3.1 8.3-.9 17.4-10 21.4zm-25.8 51.1c0 4.4-3.6 8-8 8H151c-4.4 0-8-3.6-8-8v-16c0-4.4 3.6-8 8-8h185c4.4 0 8 3.6 8 8v16zm0 48c0 4.4-3.6 8-8 8H151c-4.4 0-8-3.6-8-8v-16c0-4.4 3.6-8 8-8h185c4.4 0 8 3.6 8 8v16zm0 126.9c0 13.3-10.7 24-24 24H167c-13.3 0-24-10.7-24-24v-42.9c0-13.3 10.7-24 24-24h153c13.3 0 24 10.7 24 24v42.9z"/>
</svg>
